# xmcd
# 
# Track frame offsets:
#     150
#     25963
#     37829
#     60221
#     72102
#     85866
#     98799
#     111558
#     130662
#     147608
#     162750
#     180664
#     192558
#     214345
#     233797
#     247991
#     259422
#     273593
#     291290
#     308878
# 
# Disc length: 4334
# 
# Revision: 3
# Processed by: cddbd v1.5.2PL0 Copyright (c) Steve Scherf et al.
# Submitted via: fre:ac v1.0.17
# 
DISCID=2910ec14
DTITLE=Sutherland Brothers and Quiver - The Very Best Of Sutherland Brothers and Quiver
DYEAR=2002
DGENRE=Pop
TTITLE0=The Pie
TTITLE1=I Was In Chains
TTITLE2=Real Love
TTITLE3=Sailing
TTITLE4=You Got Me Anyway
TTITLE5=Lifeboat
TTITLE6=Dream Kid
TTITLE7=Champion The Underdog
TTITLE8=Beat Of The Street
TTITLE9=Laid Back In Anger
TTITLE10=When The Train Comes
TTITLE11=Arms Of Mary (Single Version)
TTITLE12=Dr Dancer
TTITLE13=Love On The Moon
TTITLE14=Moonlight Lady
TTITLE15=Slipstream
TTITLE16=Secrets
TTITLE17=Something's Burning
TTITLE18=When The Night Comes Down
TTITLE19=Easy Come, Easy Go (Single Version)
EXTD=
EXTT0=
EXTT1=
EXTT2=
EXTT3=
EXTT4=
EXTT5=
EXTT6=
EXTT7=
EXTT8=
EXTT9=
EXTT10=
EXTT11=
EXTT12=
EXTT13=
EXTT14=
EXTT15=
EXTT16=
EXTT17=
EXTT18=
EXTT19=
PLAYORDER=
